HIERARCHY
ROOT Hips
{
	OFFSET 0.000000 97.167313 0.000000
	CHANNELS 6 Xposition Yposition Zposition Xrotation Yrotation Zrotation
	JOINT Spine
	{
		OFFSET 0.000000 13.784798 0.064400
		CHANNELS 3 Xrotation Yrotation Zrotation
		JOINT Spine1
		{
			OFFSET 0.000000 12.037903 0.404700
			CHANNELS 3 Xrotation Yrotation Zrotation
			JOINT Spine2
			{
				OFFSET 0.000000 17.795601 0.420200
				CHANNELS 3 Xrotation Yrotation Zrotation
				JOINT Neck
				{
					OFFSET 0.000000 39.131302 11.954600
					CHANNELS 3 Xrotation Yrotation Zrotation
					JOINT Head
					{
						OFFSET 0.000000 14.456192 15.627699
						CHANNELS 3 Xrotation Yrotation Zrotation
						JOINT HeadTop_End
						{
							OFFSET 0.000000 15.703506 7.603401
							CHANNELS 3 Xrotation Yrotation Zrotation
							End Site
							{
								OFFSET 0.000000 17.447403 0.000000
							}
						}
					}
				}
				JOINT LeftShoulder
				{
					OFFSET 17.399500 24.608795 1.168800
					CHANNELS 3 Xrotation Yrotation Zrotation
					JOINT LeftArm
					{
						OFFSET 18.980635 5.765305 1.818600
						CHANNELS 3 Xrotation Yrotation Zrotation
						JOINT LeftForeArm
						{
							OFFSET 49.290169 0.000000 0.000000
							CHANNELS 3 Xrotation Yrotation Zrotation
							JOINT LeftHand
							{
								OFFSET 31.562012 0.000000 0.000000
								CHANNELS 3 Xrotation Yrotation Zrotation
								JOINT LeftHandThumb1
								{
									OFFSET 6.133995 -4.388519 7.076070
									CHANNELS 3 Xrotation Yrotation Zrotation
									JOINT LeftHandThumb2
									{
										OFFSET 6.037666 -3.485840 3.485847
										CHANNELS 3 Xrotation Yrotation Zrotation
										JOINT LeftHandThumb3
										{
											OFFSET 6.496506 -3.750763 3.750761
											CHANNELS 3 Xrotation Yrotation Zrotation
											JOINT LeftHandThumb4
											{
												OFFSET 5.616882 -3.242905 3.242910
												CHANNELS 3 Xrotation Yrotation Zrotation
												End Site
												{
													OFFSET -1.254608 7.132141 0.375429
												}
											}
										}
									}
								}
								JOINT LeftHandPinky1
								{
									OFFSET 18.920792 -0.453171 -11.426712
									CHANNELS 3 Xrotation Yrotation Zrotation
									JOINT LeftHandPinky2
									{
										OFFSET 4.919586 0.000000 0.000000
										CHANNELS 3 Xrotation Yrotation Zrotation
										JOINT LeftHandPinky3
										{
											OFFSET 5.233047 0.000000 0.000000
											CHANNELS 3 Xrotation Yrotation Zrotation
											JOINT LeftHandPinky4
											{
												OFFSET 5.571716 0.000000 0.000000
												CHANNELS 3 Xrotation Yrotation Zrotation
												End Site
												{
													OFFSET -3.459808 4.342407 -0.466164
												}
											}
										}
									}
								}
								JOINT LeftHandRing1
								{
									OFFSET 22.726120 -0.094986 -6.500475
									CHANNELS 3 Xrotation Yrotation Zrotation
									JOINT LeftHandRing2
									{
										OFFSET 6.408615 0.000000 0.000000
										CHANNELS 3 Xrotation Yrotation Zrotation
										JOINT LeftHandRing3
										{
											OFFSET 6.150223 0.000000 0.000000
											CHANNELS 3 Xrotation Yrotation Zrotation
											JOINT LeftHandRing4
											{
												OFFSET 6.145386 0.000000 0.000000
												CHANNELS 3 Xrotation Yrotation Zrotation
												End Site
												{
													OFFSET -3.671402 4.923981 -0.202372
												}
											}
										}
									}
								}
								JOINT LeftHandMiddle1
								{
									OFFSET 23.373947 0.000000 0.000001
									CHANNELS 3 Xrotation Yrotation Zrotation
									JOINT LeftHandMiddle2
									{
										OFFSET 6.996567 0.000000 0.000000
										CHANNELS 3 Xrotation Yrotation Zrotation
										JOINT LeftHandMiddle3
										{
											OFFSET 7.015945 0.000000 0.000000
											CHANNELS 3 Xrotation Yrotation Zrotation
											JOINT LeftHandMiddle4
											{
												OFFSET 7.721573 0.000000 0.000000
												CHANNELS 3 Xrotation Yrotation Zrotation
												End Site
												{
													OFFSET -4.651108 6.158463 0.251582
												}
											}
										}
									}
								}
								JOINT LeftHandIndex1
								{
									OFFSET 21.310577 -0.490082 6.209344
									CHANNELS 3 Xrotation Yrotation Zrotation
									JOINT LeftHandIndex2
									{
										OFFSET 7.536453 0.000000 0.000000
										CHANNELS 3 Xrotation Yrotation Zrotation
										JOINT LeftHandIndex3
										{
											OFFSET 7.512344 0.000000 0.000000
											CHANNELS 3 Xrotation Yrotation Zrotation
											JOINT LeftHandIndex4
											{
												OFFSET 10.212402 0.000000 0.000001
												CHANNELS 3 Xrotation Yrotation Zrotation
												End Site
												{
													OFFSET -5.180801 8.690506 1.388433
												}
											}
										}
									}
								}
							}
						}
					}
				}
				JOINT RightShoulder
				{
					OFFSET -17.399500 24.608795 1.168800
					CHANNELS 3 Xrotation Yrotation Zrotation
					JOINT RightArm
					{
						OFFSET -18.980635 5.765305 1.818600
						CHANNELS 3 Xrotation Yrotation Zrotation
						JOINT RightForeArm
						{
							OFFSET -49.290169 0.000000 0.000000
							CHANNELS 3 Xrotation Yrotation Zrotation
							JOINT RightHand
							{
								OFFSET -31.562012 0.000000 0.000000
								CHANNELS 3 Xrotation Yrotation Zrotation
								JOINT RightHandThumb1
								{
									OFFSET -6.133995 -4.388519 7.076070
									CHANNELS 3 Xrotation Yrotation Zrotation
									JOINT RightHandThumb2
									{
										OFFSET -6.037666 -3.485840 3.485847
										CHANNELS 3 Xrotation Yrotation Zrotation
										JOINT RightHandThumb3
										{
											OFFSET -6.496506 -3.750763 3.750761
											CHANNELS 3 Xrotation Yrotation Zrotation
											JOINT RightHandThumb4
											{
												OFFSET -5.616882 -3.242905 3.242910
												CHANNELS 3 Xrotation Yrotation Zrotation
												End Site
												{
													OFFSET 1.254608 7.132141 0.375429
												}
											}
										}
									}
								}
								JOINT RightHandIndex1
								{
									OFFSET -21.310577 -0.490082 6.209344
									CHANNELS 3 Xrotation Yrotation Zrotation
									JOINT RightHandIndex2
									{
										OFFSET -7.536453 0.000000 0.000000
										CHANNELS 3 Xrotation Yrotation Zrotation
										JOINT RightHandIndex3
										{
											OFFSET -7.512344 0.000000 0.000000
											CHANNELS 3 Xrotation Yrotation Zrotation
											JOINT RightHandIndex4
											{
												OFFSET -10.212402 0.000000 0.000001
												CHANNELS 3 Xrotation Yrotation Zrotation
												End Site
												{
													OFFSET 5.180801 8.690506 1.388433
												}
											}
										}
									}
								}
								JOINT RightHandMiddle1
								{
									OFFSET -23.373947 0.000000 0.000001
									CHANNELS 3 Xrotation Yrotation Zrotation
									JOINT RightHandMiddle2
									{
										OFFSET -6.996567 0.000000 0.000000
										CHANNELS 3 Xrotation Yrotation Zrotation
										JOINT RightHandMiddle3
										{
											OFFSET -7.015945 0.000000 0.000000
											CHANNELS 3 Xrotation Yrotation Zrotation
											JOINT RightHandMiddle4
											{
												OFFSET -7.721573 0.000000 0.000000
												CHANNELS 3 Xrotation Yrotation Zrotation
												End Site
												{
													OFFSET 4.651108 6.158463 0.251582
												}
											}
										}
									}
								}
								JOINT RightHandRing1
								{
									OFFSET -22.726120 -0.094986 -6.500475
									CHANNELS 3 Xrotation Yrotation Zrotation
									JOINT RightHandRing2
									{
										OFFSET -6.408615 0.000000 0.000000
										CHANNELS 3 Xrotation Yrotation Zrotation
										JOINT RightHandRing3
										{
											OFFSET -6.150223 0.000000 0.000000
											CHANNELS 3 Xrotation Yrotation Zrotation
											JOINT RightHandRing4
											{
												OFFSET -6.145386 0.000000 0.000000
												CHANNELS 3 Xrotation Yrotation Zrotation
												End Site
												{
													OFFSET 3.671402 4.923981 -0.202372
												}
											}
										}
									}
								}
								JOINT RightHandPinky1
								{
									OFFSET -18.920792 -0.453171 -11.426712
									CHANNELS 3 Xrotation Yrotation Zrotation
									JOINT RightHandPinky2
									{
										OFFSET -4.919586 0.000000 0.000000
										CHANNELS 3 Xrotation Yrotation Zrotation
										JOINT RightHandPinky3
										{
											OFFSET -5.233047 0.000000 0.000000
											CHANNELS 3 Xrotation Yrotation Zrotation
											JOINT RightHandPinky4
											{
												OFFSET -5.571716 0.000000 0.000000
												CHANNELS 3 Xrotation Yrotation Zrotation
												End Site
												{
													OFFSET 3.459808 4.342407 -0.466164
												}
											}
										}
									}
								}
							}
						}
					}
				}
			}
		}
	}
	JOINT LeftUpLeg
	{
		OFFSET 19.899099 -7.885101 -3.429500
		CHANNELS 3 Xrotation Yrotation Zrotation
		JOINT LeftLeg
		{
			OFFSET 1.745560 -36.997807 10.304700
			CHANNELS 3 Xrotation Yrotation Zrotation
			JOINT LeftFoot
			{
				OFFSET -1.745558 -29.803308 -13.615400
				CHANNELS 3 Xrotation Yrotation Zrotation
				JOINT LeftToeBase
				{
					OFFSET 1.181900 -18.539904 15.226099
					CHANNELS 3 Xrotation Yrotation Zrotation
					JOINT LeftToe_End
					{
						OFFSET -0.863701 1.402801 16.534700
						CHANNELS 3 Xrotation Yrotation Zrotation
						End Site
						{
							OFFSET 0.000000 16.616566 0.000000
						}
					}
				}
			}
		}
	}
	JOINT RightUpLeg
	{
		OFFSET -19.899099 -7.885101 -3.429500
		CHANNELS 3 Xrotation Yrotation Zrotation
		JOINT RightLeg
		{
			OFFSET -1.745560 -36.997807 10.304700
			CHANNELS 3 Xrotation Yrotation Zrotation
			JOINT RightFoot
			{
				OFFSET 1.745558 -29.803308 -13.615400
				CHANNELS 3 Xrotation Yrotation Zrotation
				JOINT RightToeBase
				{
					OFFSET -1.181900 -18.539904 15.226099
					CHANNELS 3 Xrotation Yrotation Zrotation
					JOINT RightToe_End
					{
						OFFSET 0.863701 1.402801 16.534700
						CHANNELS 3 Xrotation Yrotation Zrotation
						End Site
						{
							OFFSET 0.000000 16.616566 0.000000
						}
					}
				}
			}
		}
	}
}
MOTION
Frames: 4
Frame Time: 0.033333
-4.808218 18.145294 -15.179161 51.394366 11.420851 1.601663 21.597659 6.868771 -1.777582 10.078650 1.921548 0.379276 10.026447 2.122939 0.431004 -2.559277 -4.095187 -0.615226 -28.351646 -17.097183 0.062287 0.000001 -0.000000 0.000000 2.186012 -17.657075 1.270050 -66.989218 -47.700743 -57.485850 0.000009 -46.173148 -0.000004 13.524394 41.271630 -29.344251 -10.433059 4.657772 6.617692 15.679350 22.312867 -1.281204 -1.342543 37.342703 7.036988 -0.000000 0.000001 0.000001 3.519923 6.804109 -38.608088 0.950277 -0.585731 -30.668352 0.533863 2.662930 -22.668612 0.000000 -0.000003 0.000001 1.981359 4.881843 -39.310215 1.371373 4.128591 -36.736026 0.262651 1.887183 -15.844823 -0.000000 -0.000001 0.000003 1.041703 4.344178 -17.507182 1.123910 3.775241 -33.146382 0.213899 1.706162 -14.289884 0.000001 0.000000 0.000001 2.058396 5.266044 -31.969708 1.022935 3.616233 -31.580107 0.246022 1.827662 -15.332115 -0.000000 -0.000000 0.000001 1.226331 18.995159 6.422491 -61.664259 30.005984 38.965550 0.000008 26.386703 -0.000007 28.051228 -5.279986 -74.995409 -21.214518 1.380812 7.087771 -0.589378 0.767190 -6.250114 -9.811153 4.373678 2.920795 0.000002 -0.000001 -0.000001 -0.523777 6.339509 4.957674 0.060027 -0.913537 7.518389 0.234561 1.794228 -14.894737 -0.000000 0.000000 -0.000003 0.013925 -0.467493 2.549912 0.078640 -1.044911 8.607413 0.234556 1.794229 -14.894754 -0.000001 0.000000 -0.000009 -0.159601 -6.215493 -1.841843 0.025908 -0.600922 4.937323 0.083326 1.075375 -8.860337 -0.000000 0.000000 -0.000002 -2.480745 -16.426347 -9.542106 0.108333 -1.225140 10.106832 0.000351 0.068638 -0.563105 0.000000 0.000001 0.000006 -104.967365 -3.565613 4.033085 117.506247 33.491891 4.429724 44.466663 0.290924 35.623859 14.780820 13.553593 41.988339 0.000003 -0.000004 -0.000001 -13.032089 0.050577 -3.686227 61.380690 14.834227 4.189618 30.128180 -0.181188 21.759936 44.589340 26.461918 6.925722 0.000000 0.000003 -0.000000 
-4.204816 18.842117 -13.219116 51.362210 9.596538 1.720251 22.176149 6.360324 -2.178384 10.472131 1.819922 0.173426 10.420432 2.038528 0.225397 -3.037470 -3.760348 -1.222929 -28.069991 -15.790532 0.551504 0.000003 -0.000000 0.000000 2.685895 -17.450435 4.296173 -72.361626 -43.968455 -56.471236 0.000036 -48.192374 0.000039 15.335411 38.941046 -21.710535 -11.445870 3.951296 5.409391 14.032600 20.089504 -0.046839 -2.008434 33.469774 6.498809 0.000001 -0.000001 0.000000 3.994785 7.966418 -34.130312 0.836440 -0.785168 -28.766715 0.436156 2.415992 -20.464126 0.000002 0.000002 -0.000002 1.979140 4.981897 -35.422980 1.161565 3.832142 -33.714251 0.191054 1.613937 -13.501790 -0.000001 -0.000002 0.000005 0.699703 3.372662 -16.295124 0.968980 3.527110 -30.714001 0.139331 1.380939 -11.522628 0.000001 0.000001 0.000001 1.725713 4.880107 -29.165287 0.889622 3.390267 -29.398944 0.162982 1.492204 -12.465799 -0.000002 0.000001 0.000001 0.953817 19.280489 8.077395 -62.386845 31.988149 40.892445 0.000004 25.690858 0.000017 29.462123 -4.287225 -76.538089 -21.214878 1.380637 7.088001 -0.589382 0.767209 -6.250093 -9.811148 4.373677 2.920787 0.000004 0.000001 0.000002 -0.523808 6.339452 4.957974 0.060027 -0.913555 7.518350 0.234555 1.794229 -14.894727 -0.000001 0.000000 0.000001 0.013928 -0.467552 2.550218 0.078641 -1.044900 8.607414 0.234560 1.794236 -14.894737 0.000001 -0.000001 -0.000009 -0.159568 -6.215580 -1.841533 0.025910 -0.600913 4.937372 0.083307 1.075342 -8.860328 0.000001 0.000001 -0.000005 -2.480665 -16.426480 -9.541787 0.108344 -1.225144 10.106941 0.000338 0.068615 -0.563094 -0.000000 0.000003 0.000003 -105.281622 -5.901135 6.063940 118.074737 33.082793 5.088829 44.105632 1.089221 30.621637 10.916148 10.039797 47.611555 0.000001 0.000000 0.000000 -11.294393 1.275694 -4.118421 58.407174 13.731127 3.319003 30.147246 0.104626 21.325343 47.762635 26.032993 6.308060 0.000000 0.000001 0.000000 
-3.791600 19.576157 -11.309296 51.726614 7.827813 1.812804 22.659631 5.827256 -2.407890 10.860036 1.620591 -0.040160 10.814278 1.850967 0.020408 -3.499972 -3.358148 -1.784576 -27.849768 -14.185643 1.011951 -0.000000 -0.000000 0.000000 2.994259 -17.787624 6.353821 -77.429948 -40.540270 -54.518792 0.000032 -49.747591 0.000012 18.694684 37.033805 -14.670922 -12.554773 3.206284 4.047827 12.256980 17.627682 1.187983 -2.729922 29.228647 5.819505 0.000003 -0.000000 -0.000001 4.279145 9.363466 -29.198987 0.719049 -1.008553 -26.677425 0.339900 2.140588 -18.042679 -0.000003 0.000000 -0.000006 1.933511 5.114516 -31.148572 0.949531 3.494231 -30.396230 0.125346 1.310561 -10.927889 -0.000000 0.000000 0.000003 0.370234 2.290784 -14.971669 0.811115 3.247204 -28.042715 0.075633 1.019858 -8.482737 0.000001 0.000001 0.000001 1.390941 4.433553 -26.088519 0.753248 3.136324 -27.003399 0.091205 1.119302 -9.317159 -0.000003 0.000001 0.000002 0.690484 19.148084 9.614348 -63.643348 33.273051 43.683151 0.000003 26.121316 0.000006 31.831571 -3.658296 -77.772106 -21.215080 1.380542 7.088168 -0.589365 0.767167 -6.250098 -9.811146 4.373643 2.920779 0.000003 0.000000 0.000001 -0.523829 6.339417 4.958188 0.060027 -0.913553 7.518340 0.234553 1.794229 -14.894711 -0.000001 -0.000002 0.000003 0.013933 -0.467596 2.550436 0.078630 -1.044935 8.607433 0.234561 1.794218 -14.894723 -0.000000 0.000001 -0.000006 -0.159545 -6.215627 -1.841315 0.025912 -0.600927 4.937415 0.083304 1.075350 -8.860319 -0.000001 -0.000001 -0.000005 -2.480617 -16.426581 -9.541565 0.108350 -1.225124 10.107009 0.000334 0.068604 -0.563072 -0.000003 -0.000000 0.000002 -104.250646 -7.492519 6.668800 118.044971 32.437323 5.442819 43.545024 1.447543 26.467246 9.872129 8.007979 49.779054 0.000005 -0.000003 -0.000001 -10.031719 1.988757 -4.395068 55.824697 12.071024 2.006131 29.517656 0.324517 20.228872 51.996147 25.722516 5.484260 -0.000000 0.000001 -0.000000 
-3.420532 20.309250 -9.482262 52.392325 5.871930 1.670644 23.089463 5.197896 -2.303715 11.283794 1.356567 -0.232093 11.247799 1.592423 -0.171713 -3.894786 -2.838069 -2.193686 -27.516988 -11.963139 1.385671 -0.000000 -0.000000 0.000000 3.471878 -18.210466 8.569097 -81.981681 -37.344561 -51.622327 0.000028 -50.840776 0.000020 20.598454 34.349947 -6.065639 -13.741244 2.443040 2.546415 10.378372 14.965312 2.377566 -3.506427 24.689925 4.992391 -0.000002 0.000001 -0.000002 4.287467 10.967546 -23.876746 0.602040 -1.253194 -24.432734 0.249534 1.840395 -15.441635 -0.000003 0.000002 -0.000002 1.830436 5.276668 -26.551974 0.743981 3.118111 -26.833505 0.070052 0.981657 -8.162780 -0.000001 -0.000001 -0.000000 0.070461 1.113473 -13.557897 0.656291 2.938610 -25.173900 0.028649 0.628677 -5.216931 0.000003 0.000001 0.000001 1.068725 3.930004 -22.787722 0.618703 2.857398 -24.430511 0.037059 0.714863 -5.934674 -0.000000 0.000003 0.000002 0.450631 18.827457 11.033773 -65.819582 34.217871 47.513176 0.000006 26.830317 0.000009 35.272292 -2.962592 -78.733749 -21.213825 1.381111 7.087316 -0.589399 0.767224 -6.250107 -9.811156 4.373698 2.920794 0.000002 0.000000 -0.000000 -0.523714 6.339562 4.957118 0.060027 -0.913531 7.518461 0.234561 1.794232 -14.894745 -0.000002 0.000000 -0.000001 0.013923 -0.467436 2.549354 0.078636 -1.044903 8.607392 0.234558 1.794232 -14.894749 -0.000001 0.000001 -0.000006 -0.159665 -6.215400 -1.842414 0.025906 -0.600909 4.937228 0.083315 1.075367 -8.860366 0.000001 -0.000000 -0.000007 -2.480907 -16.426187 -9.542683 0.108340 -1.225108 10.106608 0.000342 0.068614 -0.563118 0.000002 0.000003 -0.000001 -101.113205 -8.501218 6.090280 116.896393 32.139947 5.694551 43.384870 1.308410 23.304276 11.449462 7.047111 47.834335 -0.000002 -0.000003 -0.000001 -9.224620 2.297868 -3.879112 53.770473 8.903683 -0.091975 28.226529 0.689783 17.001178 56.793764 26.992114 4.875721 -0.000000 0.000002 -0.000000 
